HIERARCHY
ROOT hip
{
  OFFSET 0 0 0
  CHANNELS 6 Xposition Yposition Zposition Zrotation Yrotation Xrotation
  JOINT abdomen
  {
    OFFSET 0 20.6881 -0.73152
    CHANNELS 3 Zrotation Xrotation Yrotation
    JOINT chest
    {
      OFFSET 0 11.7043 -0.48768
      CHANNELS 3 Zrotation Xrotation Yrotation
      JOINT neck
      {
        OFFSET 0 22.1894 -2.19456
        CHANNELS 3 Zrotation Xrotation Yrotation
        JOINT head
        {
          OFFSET -0.24384 7.07133 1.2192
          CHANNELS 3 Zrotation Xrotation Yrotation
          JOINT leftEye
          {
            OFFSET 4.14528 8.04674 8.04672
            CHANNELS 3 Zrotation Xrotation Yrotation
            End Site
            {
              OFFSET 1 0 0
            }
          }
          JOINT rightEye
          {
            OFFSET -3.6576 8.04674 8.04672
            CHANNELS 3 Zrotation Xrotation Yrotation
            End Site
            {
              OFFSET 1 0 0
            }
          }
        }
      }
      JOINT rCollar
      {
        OFFSET -2.68224 19.2634 -4.8768
        CHANNELS 3 Zrotation Xrotation Yrotation
        JOINT rShldr
        {
          OFFSET -8.77824 -1.95073 1.46304
          CHANNELS 3 Zrotation Xrotation Yrotation
          JOINT rForeArm
          {
            OFFSET -28.1742 -1.7115 0.48768
            CHANNELS 3 Zrotation Xrotation Yrotation
            JOINT rHand
            {
              OFFSET -22.5879 0.773209 7.07136
              CHANNELS 3 Zrotation Xrotation Yrotation
              JOINT rThumb1
              {
                OFFSET -1.2192 -0.487915 3.41376
                CHANNELS 3 Zrotation Xrotation Yrotation
                JOINT rThumb2
                {
                  OFFSET -3.37035 -0.52449 3.41376
                  CHANNELS 3 Zrotation Xrotation Yrotation
                  End Site
                  {
                    OFFSET -1.78271 -1.18214 1.43049
                  }
                }
              }
              JOINT rIndex1
              {
                OFFSET -7.75947 0.938293 5.60832
                CHANNELS 3 Zrotation Xrotation Yrotation
                JOINT rIndex2
                {
                  OFFSET -2.54057 -0.884171 1.56538
                  CHANNELS 3 Zrotation Xrotation Yrotation
                  End Site
                  {
                    OFFSET -1.62519 -0.234802 1.16502
                  }
                }
              }
              JOINT rMid1
              {
                OFFSET -8.24714 1.18213 3.41376
                CHANNELS 3 Zrotation Xrotation Yrotation
                JOINT rMid2
                {
                  OFFSET -3.10165 -0.590103 1.0647
                  CHANNELS 3 Zrotation Xrotation Yrotation
                  End Site
                  {
                    OFFSET -2.48547 -0.328903 0.83742
                  }
                }
              }
              JOINT rRing1
              {
                OFFSET -8.82822 0.546677 1.51678
                CHANNELS 3 Zrotation Xrotation Yrotation
                JOINT rRing2
                {
                  OFFSET -2.60934 -0.819778 -0.0198488
                  CHANNELS 3 Zrotation Xrotation Yrotation
                  End Site
                  {
                    OFFSET -2.33842 -0.294052 0.168128
                  }
                }
              }
              JOINT rPinky1
              {
                OFFSET -8.27202 -0.0477905 -0.4584
                CHANNELS 3 Zrotation Xrotation Yrotation
                JOINT rPinky2
                {
                  OFFSET -1.82734 -0.647385 -0.700984
                  CHANNELS 3 Zrotation Xrotation Yrotation
                  End Site
                  {
                    OFFSET -1.69225 -0.51767 -0.607171
                  }
                }
              }
            }
          }
        }
      }
      JOINT lCollar
      {
        OFFSET 2.68224 19.2634 -4.8768
        CHANNELS 3 Zrotation Xrotation Yrotation
        JOINT lShldr
        {
          OFFSET 8.77824 -1.95073 1.46304
          CHANNELS 3 Zrotation Xrotation Yrotation
          JOINT lForeArm
          {
            OFFSET 28.1742 -1.7115 0.48768
            CHANNELS 3 Zrotation Xrotation Yrotation
            JOINT lHand
            {
              OFFSET 22.5879 0.773209 7.07136
              CHANNELS 3 Zrotation Xrotation Yrotation
              JOINT lThumb1
              {
                OFFSET 1.2192 -0.487915 3.41376
                CHANNELS 3 Zrotation Xrotation Yrotation
                JOINT lThumb2
                {
                  OFFSET 3.37035 -0.52449 3.41376
                  CHANNELS 3 Zrotation Xrotation Yrotation
                  End Site
                  {
                    OFFSET 1.78271 -1.18214 1.43049
                  }
                }
              }
              JOINT lIndex1
              {
                OFFSET 7.75947 0.938293 5.60832
                CHANNELS 3 Zrotation Xrotation Yrotation
                JOINT lIndex2
                {
                  OFFSET 2.54057 -0.884171 1.56538
                  CHANNELS 3 Zrotation Xrotation Yrotation
                  End Site
                  {
                    OFFSET 1.62519 -0.234802 1.16502
                  }
                }
              }
              JOINT lMid1
              {
                OFFSET 8.24714 1.18213 3.41376
                CHANNELS 3 Zrotation Xrotation Yrotation
                JOINT lMid2
                {
                  OFFSET 3.10165 -0.590103 1.0647
                  CHANNELS 3 Zrotation Xrotation Yrotation
                  End Site
                  {
                    OFFSET 2.48547 -0.328903 0.83742
                  }
                }
              }
              JOINT lRing1
              {
                OFFSET 8.82822 0.546677 1.51678
                CHANNELS 3 Zrotation Xrotation Yrotation
                JOINT lRing2
                {
                  OFFSET 2.60934 -0.819778 -0.0198488
                  CHANNELS 3 Zrotation Xrotation Yrotation
                  End Site
                  {
                    OFFSET 2.33842 -0.294052 0.168128
                  }
                }
              }
              JOINT lPinky1
              {
                OFFSET 8.27202 -0.0477905 -0.4584
                CHANNELS 3 Zrotation Xrotation Yrotation
                JOINT lPinky2
                {
                  OFFSET 1.82734 -0.647385 -0.700984
                  CHANNELS 3 Zrotation Xrotation Yrotation
                  End Site
                  {
                    OFFSET 1.69225 -0.51767 -0.607171
                  }
                }
              }
            }
          }
        }
      }
    }
  }
  JOINT rButtock
  {
    OFFSET -8.77824 4.35084 1.2192
    CHANNELS 3 Zrotation Xrotation Yrotation
    JOINT rThigh
    {
      OFFSET 0 -1.70687 -2.19456
      CHANNELS 3 Zrotation Xrotation Yrotation
      JOINT rShin
      {
        OFFSET 0 -36.8199 0.73152
        CHANNELS 3 Zrotation Xrotation Yrotation
        JOINT rFoot
        {
          OFFSET 0.73152 -45.1104 -5.12064
          CHANNELS 3 Zrotation Xrotation Yrotation
          End Site
          {
            OFFSET -1.1221 -3.69964 12.103
          }
        }
      }
    }
  }
  JOINT lButtock
  {
    OFFSET 8.77824 4.35084 1.2192
    CHANNELS 3 Zrotation Xrotation Yrotation
    JOINT lThigh
    {
      OFFSET 0 -1.70687 -2.19456
      CHANNELS 3 Zrotation Xrotation Yrotation
      JOINT lShin
      {
        OFFSET 0 -36.8199 0.73152
        CHANNELS 3 Zrotation Xrotation Yrotation
        JOINT lFoot
        {
          OFFSET -0.73152 -45.1104 -5.12064
          CHANNELS 3 Zrotation Xrotation Yrotation
          End Site
          {
            OFFSET 1.1221 -3.69964 12.103
          }
        }
      }
    }
  }
}
MOTION
Frames:	4
Frame Time:	0.00833333
241.033 84.7658 40.9594 0.0 0.0 0.0 -0.385195 -0.00168814 -0.0109958 -0.106234 -0.00256714 -0.0184048 2.89201e-15 7.95139e-16 6.21202e-18 8.78069e-15 9.54166e-15 2.01891e-17 -0.0 0.0 0.0 -0.0 0.0 0.0 1.48959e-15 -3.49426e-18 9.93923e-17 3.25814e-14 1.2424e-17 1.19271e-15 5.31501e-13 -1.58829e-13 -6.36111e-15 6.06583e-12 1.58282e-13 3.49861e-14 1.43088e-11 -6.93943e-16 6.67917e-14 2.4703e-11 0.0 1.10524e-13 1.43133e-11 3.97569e-16 4.77083e-14 7.73091 5.47488 0.417314 1.4309e-11 -6.95746e-16 6.99722e-14 2.90554 0.965183 0.102902 1.43172e-11 0.0 6.52014e-14 10.2786 0.731801 0.0259123 1.43057e-11 1.59028e-15 7.31528e-14 2.22167 -0.733487 -0.20892 1.39288e-15 -3.10601e-18 -9.93923e-17 2.86611e-14 -7.45443e-17 -7.95139e-16 5.2673e-13 1.58233e-13 -3.18055e-15 6.06527e-12 -1.61239e-13 3.81667e-14 1.43049e-11 -3.76601e-15 6.36111e-14 2.47221e-11 -9.54166e-15 1.15295e-13 1.43006e-11 -3.18055e-15 7.31528e-14 -7.73091 5.47488 -0.417314 1.43058e-11 -3.97569e-15 6.04305e-14 -2.90554 0.965183 -0.102902 1.42926e-11 -3.08116e-15 6.59965e-14 -10.2786 0.731801 -0.0259123 1.43145e-11 -1.19271e-15 5.725e-14 -2.22167 -0.733487 0.20892 -2.03217e-16 0.0 -3.88251e-19 0.221631 -2.58356 -0.0280805 -0.00748944 -0.872628 -0.0651388 -0.513091 3.45577 0.129344 2.03217e-16 0.0 3.88251e-19 -0.807794 -4.07084 0.0653919 0.00325589 1.82138 0.0244331 0.51773 2.24911 -0.105183
237.33 83.548 33.9452 -135.066 -83.9644 143.181 0.865576 -2.01 -0.694709 0.518845 -0.280477 -0.259718 -3.36113 0.200879 -2.28755 3.65086 -1.61717 -3.5102 -0.0 0.0 0.0 -0.0 0.0 0.0 6.19115e-15 -2.40388e-13 4.01386e-14 20.131 4.78244 1.33489 -3.18454 -1.28841 5.13285 0.026067 3.58274 0.499972 -5.21317e-10 -4.46804e-10 3.24761e-10 -8.97458e-10 -7.7603e-10 5.67542e-10 -5.21314e-10 -4.46802e-10 3.24747e-10 7.73091 5.47488 0.417314 -5.21318e-10 -4.46804e-10 3.24765e-10 2.90554 0.965183 0.102902 -5.21309e-10 -4.46801e-10 3.2476e-10 10.2786 0.731801 0.0259123 -5.21318e-10 -4.46799e-10 3.24766e-10 2.22167 -0.733487 -0.20892 6.07568e-15 -2.40389e-13 3.99569e-14 -22.7451 0.754893 0.173539 3.13776 -1.26228 -5.06409 -0.157924 8.83561 -1.18912 1.32777e-11 -1.30903e-10 -3.48082e-10 1.52831e-11 -2.22973e-10 -6.007e-10 1.32734e-11 -1.30903e-10 -3.48075e-10 -7.73091 5.47488 -0.417314 1.32772e-11 -1.30903e-10 -3.48084e-10 -2.90554 0.965183 -0.102902 1.32668e-11 -1.30902e-10 -3.4808e-10 -10.2786 0.731801 -0.0259123 1.32855e-11 -1.309e-10 -3.48089e-10 -2.22167 -0.733487 0.20892 -2.03217e-16 0.0 -3.88251e-19 1.6027 -4.95607 0.747945 -0.00627896 3.14059 0.0143996 -0.759371 0.994091 -3.96205 2.03217e-16 0.0 3.88251e-19 0.545269 -5.63641 -1.32108 0.00382425 4.53493 -0.0251877 0.551168 -0.353925 0.805631
237.422 83.5326 33.9884 -135.543 -83.904 143.766 2.13807 -4.1272 -1.42901 1.1858 -0.55964 -0.517312 -6.91058 0.373273 -4.70976 7.29852 -3.28981 -7.22714 -0.0 0.0 0.0 -0.0 0.0 0.0 1.11466e-14 -4.97697e-13 8.43499e-14 41.149 9.83939 2.80763 -6.29967 -2.61509 10.5649 -0.0148649 7.36582 1.03457 -1.10252e-09 -9.28403e-10 6.45986e-10 -1.89846e-09 -1.6127e-09 1.12954e-09 -1.10252e-09 -9.284e-10 6.45978e-10 7.73091 5.47488 0.417314 -1.10252e-09 -9.28404e-10 6.45991e-10 2.90554 0.965183 0.102902 -1.10251e-09 -9.28399e-10 6.45985e-10 10.2786 0.731801 0.0259123 -1.10252e-09 -9.28397e-10 6.4599e-10 2.22167 -0.733487 -0.20892 1.10124e-14 -4.97699e-13 8.41884e-14 -46.8046 1.51481 0.340234 6.20962 -2.56166 -10.4196 0.0930024 18.1769 -2.54591 -2.14894e-11 -2.52273e-10 -7.00558e-10 -5.24019e-11 -4.29191e-10 -1.20816e-09 -2.14937e-11 -2.52274e-10 -7.00554e-10 -7.73091 5.47488 -0.417314 -2.14916e-11 -2.52273e-10 -7.00559e-10 -2.90554 0.965183 -0.102902 -2.14989e-11 -2.52273e-10 -7.00557e-10 -10.2786 0.731801 -0.0259123 -2.14836e-11 -2.52271e-10 -7.00566e-10 -2.22167 -0.733487 0.20892 -2.03217e-16 0.0 -3.88251e-19 3.13367 -7.46018 1.576 -0.0171806 7.38249 0.0992259 -1.40055 -1.58661 -8.28758 2.03217e-16 0.0 3.88251e-19 1.89328 -7.28426 -2.79516 0.00947076 7.40401 -0.0780055 0.676581 -3.10436 1.7711
237.238 83.5538 33.9687 -134.249 -84.3845 142.316 3.22268 -6.02317 -2.0723 1.76198 -0.836234 -0.742413 -10.0354 0.598796 -6.86298 10.3601 -4.77862 -10.5635 -0.0 0.0 0.0 -0.0 0.0 0.0 1.55943e-14 -7.21156e-13 1.20217e-13 59.7068 14.3157 4.11883 -8.8691 -3.74134 15.4283 -0.112207 10.7449 1.52371 -1.59257e-09 -1.34041e-09 9.7415e-10 -2.74178e-09 -2.32809e-09 1.7024e-09 -1.59257e-09 -1.34041e-09 9.74146e-10 7.73091 5.47488 0.417314 -1.59257e-09 -1.34041e-09 9.74156e-10 2.90554 0.965183 0.102902 -1.59256e-09 -1.3404e-09 9.74149e-10 10.2786 0.731801 0.0259123 -1.59257e-09 -1.3404e-09 9.74153e-10 2.22167 -0.733487 -0.20892 1.54413e-14 -7.2116e-13 1.20069e-13 -68.249 2.26459 0.520979 8.75144 -3.66868 -15.2205 0.735011 26.4584 -3.93805 1.12234e-11 -3.92701e-10 -1.04437e-09 -3.59466e-12 -6.689e-10 -1.80233e-09 1.12191e-11 -3.92703e-10 -1.04437e-09 -7.73091 5.47488 -0.417314 1.12198e-11 -3.92701e-10 -1.04437e-09 -2.90554 0.965183 -0.102902 1.12152e-11 -3.92701e-10 -1.04437e-09 -10.2786 0.731801 -0.0259123 1.12275e-11 -3.92699e-10 -1.04438e-09 -2.22167 -0.733487 0.20892 -2.03217e-16 0.0 -3.88251e-19 4.56013 -9.69451 2.32477 -0.037705 11.167 0.176743 -2.30031 -3.83426 -12.1702 2.03217e-16 0.0 3.88251e-19 3.02182 -8.74967 -4.12258 0.0192426 9.96201 -0.126069 0.867015 -5.55425 2.63945
